# xmcd
#
# Track frame offsets:
#	150
#	23629
#	45733
#	71003
#	83817
#	101774
#	121113
#	141199
#	154649
#	167791
#	186771
#	208557
#	230896
#	248646
#	272962
#	294843
#	313367
#	328683
#
# Disc length: 4664 seconds
# Revision: 0
# Processed by: cddbd v1.5.2PL0 Copyright (c) Steve Scherf et al.
# Submitted via: dBpowerAMP V12.0
#
DISCID=05123612
DTITLE=Lee Child - Nothing to Lose
DYEAR=2008
DGENRE=Audiobook
TTITLE0=Chapter 10b
TTITLE1=Chapter 10c
TTITLE2=Chapter 11a
TTITLE3=Chapter 11b
TTITLE4=Chapter 11c
TTITLE5=Chapter 12a
TTITLE6=Chapter 12b
TTITLE7=Chapter 13a
TTITLE8=Chapter 13b
TTITLE9=Chapter 14a
TTITLE10=Chapter 14b
TTITLE11=Chapter 14c
TTITLE12=Chapter 14d
TTITLE13=Chapter 15
TTITLE14=Chapter 16a
TTITLE15=Chapter 16b
TTITLE16=Chapter 16c
TTITLE17=Chapter 17
EXTD=
EXTT0=
EXTT1=
EXTT2=
EXTT3=
EXTT4=
EXTT5=
EXTT6=
EXTT7=
EXTT8=
EXTT9=
EXTT10=
EXTT11=
EXTT12=
EXTT13=
EXTT14=
EXTT15=
EXTT16=
EXTT17=
PLAYORDER=
